<svg xmlns="http://www.w3.org/2000/svg" xmlns:xlink="http://www.w3.org/1999/xlink" width="200" zoomAndPan="magnify" viewBox="0 0 150 37.5" height="50" preserveAspectRatio="xMidYMid meet" version="1.0"><defs><g/></defs><g fill="#ffffff" fill-opacity="1"><g transform="translate(46.439275, 34.438758)"><g><path d="M 2.3125 -0.890625 C 2.3125 -0.609375 2.207031 -0.378906 2 -0.203125 C 1.789062 -0.0351562 1.5 0.046875 1.125 0.046875 C 0.78125 0.046875 0.472656 -0.0195312 0.203125 -0.15625 L 0.203125 -0.78125 C 0.359375 -0.71875 0.519531 -0.65625 0.6875 -0.59375 C 0.851562 -0.539062 1.015625 -0.515625 1.171875 -0.515625 C 1.347656 -0.515625 1.46875 -0.546875 1.53125 -0.609375 C 1.601562 -0.679688 1.640625 -0.765625 1.640625 -0.859375 C 1.640625 -0.941406 1.613281 -1.007812 1.5625 -1.0625 C 1.507812 -1.125 1.4375 -1.179688 1.34375 -1.234375 C 1.25 -1.285156 1.140625 -1.335938 1.015625 -1.390625 C 0.941406 -1.429688 0.859375 -1.472656 0.765625 -1.515625 C 0.679688 -1.566406 0.597656 -1.628906 0.515625 -1.703125 C 0.441406 -1.785156 0.378906 -1.878906 0.328125 -1.984375 C 0.273438 -2.085938 0.25 -2.210938 0.25 -2.359375 C 0.25 -2.648438 0.34375 -2.875 0.53125 -3.03125 C 0.726562 -3.195312 1 -3.28125 1.34375 -3.28125 C 1.507812 -3.28125 1.664062 -3.257812 1.8125 -3.21875 C 1.96875 -3.175781 2.128906 -3.117188 2.296875 -3.046875 L 2.078125 -2.515625 C 1.929688 -2.578125 1.796875 -2.625 1.671875 -2.65625 C 1.554688 -2.6875 1.4375 -2.703125 1.3125 -2.703125 C 1.1875 -2.703125 1.085938 -2.671875 1.015625 -2.609375 C 0.953125 -2.554688 0.921875 -2.484375 0.921875 -2.390625 C 0.921875 -2.273438 0.96875 -2.179688 1.0625 -2.109375 C 1.164062 -2.046875 1.320312 -1.960938 1.53125 -1.859375 C 1.695312 -1.785156 1.835938 -1.707031 1.953125 -1.625 C 2.066406 -1.539062 2.15625 -1.441406 2.21875 -1.328125 C 2.28125 -1.210938 2.3125 -1.066406 2.3125 -0.890625 Z M 2.3125 -0.890625 "/></g></g></g><g fill="#ffffff" fill-opacity="1"><g transform="translate(50.295455, 34.438758)"><g><path d="M 3.34375 -1.625 C 3.34375 -1.289062 3.285156 -1 3.171875 -0.75 C 3.066406 -0.5 2.898438 -0.300781 2.671875 -0.15625 C 2.441406 -0.0195312 2.148438 0.046875 1.796875 0.046875 C 1.453125 0.046875 1.164062 -0.0195312 0.9375 -0.15625 C 0.707031 -0.300781 0.535156 -0.5 0.421875 -0.75 C 0.316406 -1 0.265625 -1.289062 0.265625 -1.625 C 0.265625 -1.957031 0.316406 -2.25 0.421875 -2.5 C 0.535156 -2.75 0.707031 -2.941406 0.9375 -3.078125 C 1.164062 -3.210938 1.457031 -3.28125 1.8125 -3.28125 C 2.15625 -3.28125 2.441406 -3.210938 2.671875 -3.078125 C 2.898438 -2.941406 3.066406 -2.75 3.171875 -2.5 C 3.285156 -2.25 3.34375 -1.957031 3.34375 -1.625 Z M 0.984375 -1.625 C 0.984375 -1.28125 1.046875 -1.007812 1.171875 -0.8125 C 1.304688 -0.625 1.515625 -0.53125 1.796875 -0.53125 C 2.097656 -0.53125 2.3125 -0.625 2.4375 -0.8125 C 2.5625 -1.007812 2.625 -1.28125 2.625 -1.625 C 2.625 -1.957031 2.5625 -2.222656 2.4375 -2.421875 C 2.3125 -2.617188 2.101562 -2.71875 1.8125 -2.71875 C 1.519531 -2.71875 1.304688 -2.617188 1.171875 -2.421875 C 1.046875 -2.222656 0.984375 -1.957031 0.984375 -1.625 Z M 0.984375 -1.625 "/></g></g></g><g fill="#ffffff" fill-opacity="1"><g transform="translate(55.261813, 34.438758)"><g><path d="M 0.40625 0 L 0.40625 -3.234375 L 1.09375 -3.234375 L 1.09375 -0.5625 L 2.40625 -0.5625 L 2.40625 0 Z M 0.40625 0 "/></g></g></g><g fill="#ffffff" fill-opacity="1"><g transform="translate(59.181431, 34.438758)"><g><path d="M 3.046875 -3.234375 L 3.046875 -1.140625 C 3.046875 -0.921875 2.992188 -0.71875 2.890625 -0.53125 C 2.796875 -0.351562 2.644531 -0.210938 2.4375 -0.109375 C 2.238281 -0.00390625 1.992188 0.046875 1.703125 0.046875 C 1.273438 0.046875 0.945312 -0.0625 0.71875 -0.28125 C 0.5 -0.5 0.390625 -0.789062 0.390625 -1.15625 L 0.390625 -3.234375 L 1.0625 -3.234375 L 1.0625 -1.25 C 1.0625 -0.988281 1.113281 -0.800781 1.21875 -0.6875 C 1.332031 -0.582031 1.5 -0.53125 1.71875 -0.53125 C 1.9375 -0.53125 2.097656 -0.585938 2.203125 -0.703125 C 2.304688 -0.828125 2.359375 -1.015625 2.359375 -1.265625 L 2.359375 -3.234375 Z M 3.046875 -3.234375 "/></g></g></g><g fill="#ffffff" fill-opacity="1"><g transform="translate(63.966536, 34.438758)"><g><path d="M 1.78125 -2.703125 C 1.519531 -2.703125 1.316406 -2.601562 1.171875 -2.40625 C 1.035156 -2.21875 0.96875 -1.953125 0.96875 -1.609375 C 0.96875 -1.265625 1.03125 -1 1.15625 -0.8125 C 1.289062 -0.625 1.5 -0.53125 1.78125 -0.53125 C 1.90625 -0.53125 2.035156 -0.539062 2.171875 -0.5625 C 2.304688 -0.59375 2.453125 -0.640625 2.609375 -0.703125 L 2.609375 -0.125 C 2.460938 -0.0625 2.316406 -0.0195312 2.171875 0 C 2.035156 0.03125 1.882812 0.046875 1.71875 0.046875 C 1.382812 0.046875 1.109375 -0.0195312 0.890625 -0.15625 C 0.679688 -0.289062 0.523438 -0.484375 0.421875 -0.734375 C 0.316406 -0.984375 0.265625 -1.273438 0.265625 -1.609375 C 0.265625 -1.941406 0.320312 -2.234375 0.4375 -2.484375 C 0.550781 -2.734375 0.722656 -2.925781 0.953125 -3.0625 C 1.179688 -3.207031 1.457031 -3.28125 1.78125 -3.28125 C 1.9375 -3.28125 2.09375 -3.257812 2.25 -3.21875 C 2.414062 -3.175781 2.578125 -3.117188 2.734375 -3.046875 L 2.5 -2.5 C 2.382812 -2.550781 2.265625 -2.597656 2.140625 -2.640625 C 2.015625 -2.679688 1.894531 -2.703125 1.78125 -2.703125 Z M 2.203125 0.546875 C 2.203125 0.722656 2.148438 0.859375 2.046875 0.953125 C 1.953125 1.046875 1.773438 1.09375 1.515625 1.09375 C 1.453125 1.09375 1.394531 1.085938 1.34375 1.078125 C 1.289062 1.066406 1.242188 1.054688 1.203125 1.046875 L 1.203125 0.671875 C 1.242188 0.679688 1.296875 0.691406 1.359375 0.703125 C 1.421875 0.710938 1.472656 0.71875 1.515625 0.71875 C 1.554688 0.71875 1.59375 0.707031 1.625 0.6875 C 1.65625 0.664062 1.671875 0.628906 1.671875 0.578125 C 1.671875 0.523438 1.644531 0.476562 1.59375 0.4375 C 1.539062 0.394531 1.445312 0.363281 1.3125 0.34375 L 1.484375 0 L 1.90625 0 L 1.84375 0.140625 C 1.9375 0.171875 2.019531 0.21875 2.09375 0.28125 C 2.164062 0.351562 2.203125 0.441406 2.203125 0.546875 Z M 2.203125 0.546875 "/></g></g></g><g fill="#ffffff" fill-opacity="1"><g transform="translate(68.212409, 34.438758)"><g><path d="M 3.34375 -1.625 C 3.34375 -1.289062 3.285156 -1 3.171875 -0.75 C 3.066406 -0.5 2.898438 -0.300781 2.671875 -0.15625 C 2.441406 -0.0195312 2.148438 0.046875 1.796875 0.046875 C 1.453125 0.046875 1.164062 -0.0195312 0.9375 -0.15625 C 0.707031 -0.300781 0.535156 -0.5 0.421875 -0.75 C 0.316406 -1 0.265625 -1.289062 0.265625 -1.625 C 0.265625 -1.957031 0.316406 -2.25 0.421875 -2.5 C 0.535156 -2.75 0.707031 -2.941406 0.9375 -3.078125 C 1.164062 -3.210938 1.457031 -3.28125 1.8125 -3.28125 C 2.15625 -3.28125 2.441406 -3.210938 2.671875 -3.078125 C 2.898438 -2.941406 3.066406 -2.75 3.171875 -2.5 C 3.285156 -2.25 3.34375 -1.957031 3.34375 -1.625 Z M 0.984375 -1.625 C 0.984375 -1.28125 1.046875 -1.007812 1.171875 -0.8125 C 1.304688 -0.625 1.515625 -0.53125 1.796875 -0.53125 C 2.097656 -0.53125 2.3125 -0.625 2.4375 -0.8125 C 2.5625 -1.007812 2.625 -1.28125 2.625 -1.625 C 2.625 -1.957031 2.5625 -2.222656 2.4375 -2.421875 C 2.3125 -2.617188 2.101562 -2.71875 1.8125 -2.71875 C 1.519531 -2.71875 1.304688 -2.617188 1.171875 -2.421875 C 1.046875 -2.222656 0.984375 -1.957031 0.984375 -1.625 Z M 0.890625 -3.5 C 0.898438 -3.738281 0.960938 -3.910156 1.078125 -4.015625 C 1.191406 -4.128906 1.328125 -4.1875 1.484375 -4.1875 C 1.566406 -4.1875 1.644531 -4.164062 1.71875 -4.125 C 1.789062 -4.09375 1.863281 -4.054688 1.9375 -4.015625 C 2.019531 -3.972656 2.097656 -3.953125 2.171875 -3.953125 C 2.210938 -3.953125 2.253906 -3.972656 2.296875 -4.015625 C 2.335938 -4.054688 2.367188 -4.117188 2.390625 -4.203125 L 2.71875 -4.203125 C 2.695312 -3.960938 2.628906 -3.785156 2.515625 -3.671875 C 2.398438 -3.566406 2.265625 -3.515625 2.109375 -3.515625 C 2.035156 -3.515625 1.957031 -3.53125 1.875 -3.5625 C 1.800781 -3.601562 1.726562 -3.644531 1.65625 -3.6875 C 1.582031 -3.726562 1.507812 -3.75 1.4375 -3.75 C 1.394531 -3.75 1.351562 -3.726562 1.3125 -3.6875 C 1.269531 -3.644531 1.238281 -3.582031 1.21875 -3.5 Z M 0.890625 -3.5 "/></g></g></g><g fill="#ffffff" fill-opacity="1"><g transform="translate(73.178769, 34.438758)"><g><path d="M 2.265625 0 L 0.40625 0 L 0.40625 -3.234375 L 2.265625 -3.234375 L 2.265625 -2.671875 L 1.09375 -2.671875 L 1.09375 -1.96875 L 2.1875 -1.96875 L 2.1875 -1.40625 L 1.09375 -1.40625 L 1.09375 -0.5625 L 2.265625 -0.5625 Z M 2.265625 0 "/></g></g></g><g fill="#ffffff" fill-opacity="1"><g transform="translate(77.075731, 34.438758)"><g><path d="M 2.3125 -0.890625 C 2.3125 -0.609375 2.207031 -0.378906 2 -0.203125 C 1.789062 -0.0351562 1.5 0.046875 1.125 0.046875 C 0.78125 0.046875 0.472656 -0.0195312 0.203125 -0.15625 L 0.203125 -0.78125 C 0.359375 -0.71875 0.519531 -0.65625 0.6875 -0.59375 C 0.851562 -0.539062 1.015625 -0.515625 1.171875 -0.515625 C 1.347656 -0.515625 1.46875 -0.546875 1.53125 -0.609375 C 1.601562 -0.679688 1.640625 -0.765625 1.640625 -0.859375 C 1.640625 -0.941406 1.613281 -1.007812 1.5625 -1.0625 C 1.507812 -1.125 1.4375 -1.179688 1.34375 -1.234375 C 1.25 -1.285156 1.140625 -1.335938 1.015625 -1.390625 C 0.941406 -1.429688 0.859375 -1.472656 0.765625 -1.515625 C 0.679688 -1.566406 0.597656 -1.628906 0.515625 -1.703125 C 0.441406 -1.785156 0.378906 -1.878906 0.328125 -1.984375 C 0.273438 -2.085938 0.25 -2.210938 0.25 -2.359375 C 0.25 -2.648438 0.34375 -2.875 0.53125 -3.03125 C 0.726562 -3.195312 1 -3.28125 1.34375 -3.28125 C 1.507812 -3.28125 1.664062 -3.257812 1.8125 -3.21875 C 1.96875 -3.175781 2.128906 -3.117188 2.296875 -3.046875 L 2.078125 -2.515625 C 1.929688 -2.578125 1.796875 -2.625 1.671875 -2.65625 C 1.554688 -2.6875 1.4375 -2.703125 1.3125 -2.703125 C 1.1875 -2.703125 1.085938 -2.671875 1.015625 -2.609375 C 0.953125 -2.554688 0.921875 -2.484375 0.921875 -2.390625 C 0.921875 -2.273438 0.96875 -2.179688 1.0625 -2.109375 C 1.164062 -2.046875 1.320312 -1.960938 1.53125 -1.859375 C 1.695312 -1.785156 1.835938 -1.707031 1.953125 -1.625 C 2.066406 -1.539062 2.15625 -1.441406 2.21875 -1.328125 C 2.28125 -1.210938 2.3125 -1.066406 2.3125 -0.890625 Z M 2.3125 -0.890625 "/></g></g></g><g fill="#ffffff" fill-opacity="1"><g transform="translate(80.931911, 34.438758)"><g/></g></g><g fill="#ffffff" fill-opacity="1"><g transform="translate(83.310869, 34.438758)"><g><path d="M 2.265625 0 L 0.40625 0 L 0.40625 -3.234375 L 2.265625 -3.234375 L 2.265625 -2.671875 L 1.09375 -2.671875 L 1.09375 -1.96875 L 2.1875 -1.96875 L 2.1875 -1.40625 L 1.09375 -1.40625 L 1.09375 -0.5625 L 2.265625 -0.5625 Z M 2.265625 0 "/></g></g></g><g fill="#ffffff" fill-opacity="1"><g transform="translate(87.207831, 34.438758)"><g><path d="M 1.78125 0 L 1 -2.53125 L 0.984375 -2.53125 C 0.984375 -2.476562 0.984375 -2.390625 0.984375 -2.265625 C 0.992188 -2.140625 1 -2.007812 1 -1.875 C 1.007812 -1.738281 1.015625 -1.613281 1.015625 -1.5 L 1.015625 0 L 0.40625 0 L 0.40625 -3.234375 L 1.34375 -3.234375 L 2.109375 -0.765625 L 2.125 -0.765625 L 2.9375 -3.234375 L 3.859375 -3.234375 L 3.859375 0 L 3.21875 0 L 3.21875 -1.53125 C 3.21875 -1.632812 3.21875 -1.75 3.21875 -1.875 C 3.226562 -2.007812 3.234375 -2.132812 3.234375 -2.25 C 3.242188 -2.375 3.253906 -2.46875 3.265625 -2.53125 L 3.234375 -2.53125 L 2.40625 0 Z M 1.78125 0 "/></g></g></g><g fill="#ffffff" fill-opacity="1"><g transform="translate(92.840299, 34.438758)"><g/></g></g><g fill="#ffffff" fill-opacity="1"><g transform="translate(95.219255, 34.438758)"><g><path d="M 1.65625 0 L 0.96875 0 L 0.96875 -2.671875 L 0.09375 -2.671875 L 0.09375 -3.234375 L 2.53125 -3.234375 L 2.53125 -2.671875 L 1.65625 -2.671875 Z M 1.65625 0 "/></g></g></g><g fill="#ffffff" fill-opacity="1"><g transform="translate(99.202314, 34.438758)"><g><path d="M 0.988281 -0.714844 L 0.246094 -0.714844 L 0.246094 0 L 0.988281 0 Z M 0.988281 -0.714844 "/></g></g></g><g fill="#ffffff" fill-opacity="1"><g transform="translate(101.794245, 34.438758)"><g><path d="M 1.625 0 L 0.140625 0 L 0.140625 -0.390625 L 0.546875 -0.578125 L 0.546875 -2.671875 L 0.140625 -2.84375 L 0.140625 -3.234375 L 1.625 -3.234375 L 1.625 -2.84375 L 1.21875 -2.671875 L 1.21875 -0.578125 L 1.625 -0.390625 Z M 1.625 0 "/></g></g></g><g fill="#5ce1e6" fill-opacity="1"><g transform="translate(35.747768, 20.384596)"><g><path d="M 0.523438 -14.851562 C 0.238281 -14.851562 0.0859375 -14.699219 0.0859375 -14.414062 L 0.0859375 -12.316406 C 0.0859375 -12.03125 0.238281 -11.878906 0.523438 -11.878906 L 6.289062 -11.878906 C 4.980469 -11.324219 4.105469 -9.75 4.105469 -7.753906 L 4.105469 -0.4375 C 4.105469 -0.152344 4.257812 0 4.542969 0 L 6.945312 0 C 7.230469 0 7.382812 -0.152344 7.382812 -0.4375 L 7.382812 -11.878906 L 10.964844 -11.878906 C 11.246094 -11.878906 11.398438 -12.03125 11.398438 -12.316406 L 11.398438 -14.414062 C 11.398438 -14.699219 11.246094 -14.851562 10.964844 -14.851562 Z M 0.523438 -14.851562 "/></g></g></g><g fill="#5ce1e6" fill-opacity="1"><g transform="translate(47.255249, 20.384596)"><g><path d="M 6.203125 -9.980469 C 2.96875 -9.980469 0.589844 -7.949219 0.589844 -4.804688 C 0.589844 -1.617188 2.882812 0.347656 6.203125 0.347656 C 8.605469 0.347656 10.503906 -0.699219 11.269531 -2.882812 C 11.378906 -3.1875 11.203125 -3.386719 10.898438 -3.386719 L 8.472656 -3.386719 C 8.234375 -3.386719 8.101562 -3.253906 7.992188 -3.015625 C 7.730469 -2.425781 7.097656 -1.988281 6.136719 -1.988281 C 4.914062 -1.988281 4.148438 -2.859375 4.0625 -4.191406 L 11.09375 -4.191406 C 11.378906 -4.191406 11.53125 -4.347656 11.53125 -4.628906 L 11.53125 -5.023438 C 11.53125 -8.210938 9.128906 -9.980469 6.203125 -9.980469 Z M 4.105469 -5.960938 C 4.292969 -7.011719 4.882812 -7.753906 6.09375 -7.753906 C 7.25 -7.753906 7.992188 -7.011719 8.058594 -5.960938 Z M 4.105469 -5.960938 "/></g></g></g><g fill="#5ce1e6" fill-opacity="1"><g transform="translate(59.417805, 20.384596)"><g><path d="M 5.742188 0.347656 C 8.714844 0.347656 10.65625 -1.332031 10.964844 -3.515625 C 11.007812 -3.734375 10.832031 -3.867188 10.546875 -3.867188 L 8.144531 -3.867188 C 7.882812 -3.867188 7.753906 -3.734375 7.6875 -3.472656 C 7.492188 -2.640625 6.964844 -2.183594 5.984375 -2.183594 C 4.5 -2.183594 3.886719 -3.40625 3.886719 -4.828125 C 3.886719 -6.09375 4.5 -7.445312 5.984375 -7.445312 C 6.964844 -7.445312 7.492188 -6.988281 7.6875 -6.160156 C 7.753906 -5.894531 7.882812 -5.765625 8.144531 -5.765625 L 10.546875 -5.765625 C 10.832031 -5.765625 11.007812 -5.941406 10.964844 -6.222656 C 10.589844 -8.363281 8.671875 -9.980469 5.742188 -9.980469 C 2.535156 -9.980469 0.613281 -7.6875 0.613281 -4.828125 C 0.613281 -1.945312 2.535156 0.347656 5.742188 0.347656 Z M 5.742188 0.347656 "/></g></g></g><g fill="#5ce1e6" fill-opacity="1"><g transform="translate(71.012626, 20.384596)"><g><path d="M 7.273438 -9.847656 C 6.003906 -9.847656 4.980469 -9.28125 4.324219 -8.460938 L 4.324219 -12.230469 C 4.324219 -14.480469 3.167969 -15.941406 1.046875 -16.378906 L 1.046875 -0.4375 C 1.046875 -0.152344 1.199219 0 1.484375 0 L 3.886719 0 C 4.171875 0 4.324219 -0.152344 4.324219 -0.4375 L 4.324219 -4.804688 C 4.324219 -6.113281 5.132812 -7.207031 6.160156 -7.207031 C 7.183594 -7.207031 7.621094 -6.59375 7.621094 -5.460938 L 7.621094 -0.4375 C 7.621094 -0.152344 7.773438 0 8.058594 0 L 10.460938 0 C 10.746094 0 10.898438 -0.152344 10.898438 -0.4375 L 10.898438 -5.460938 C 10.898438 -8.082031 9.847656 -9.847656 7.273438 -9.847656 Z M 7.273438 -9.847656 "/></g></g></g><g fill="#5ce1e6" fill-opacity="1"><g transform="translate(82.803971, 20.384596)"><g><path d="M 7.25 -9.980469 C 5.984375 -9.980469 4.804688 -9.421875 3.8125 -7.960938 C 3.277344 -8.933594 2.335938 -9.585938 1.046875 -9.847656 L 1.046875 -0.4375 C 1.046875 -0.152344 1.199219 0 1.484375 0 L 3.886719 0 C 4.171875 0 4.324219 -0.152344 4.324219 -0.4375 L 4.324219 -5.425781 C 4.457031 -6.628906 5.207031 -7.359375 6.136719 -7.359375 C 7.164062 -7.359375 7.601562 -6.726562 7.601562 -5.589844 L 7.601562 -0.4375 C 7.601562 -0.152344 7.753906 0 8.035156 0 L 10.4375 0 C 10.722656 0 10.875 -0.152344 10.875 -0.4375 L 10.875 -5.589844 C 10.875 -8.210938 9.828125 -9.980469 7.25 -9.980469 Z M 7.25 -9.980469 "/></g></g></g><g fill="#5ce1e6" fill-opacity="1"><g transform="translate(94.595315, 20.384596)"><g><path d="M 6.203125 -9.980469 C 2.96875 -9.980469 0.589844 -7.949219 0.589844 -4.804688 C 0.589844 -1.617188 2.882812 0.347656 6.203125 0.347656 C 8.605469 0.347656 10.503906 -0.699219 11.269531 -2.882812 C 11.378906 -3.1875 11.203125 -3.386719 10.898438 -3.386719 L 8.472656 -3.386719 C 8.234375 -3.386719 8.101562 -3.253906 7.992188 -3.015625 C 7.730469 -2.425781 7.097656 -1.988281 6.136719 -1.988281 C 4.914062 -1.988281 4.148438 -2.859375 4.0625 -4.191406 L 11.09375 -4.191406 C 11.378906 -4.191406 11.53125 -4.347656 11.53125 -4.628906 L 11.53125 -5.023438 C 11.53125 -8.210938 9.128906 -9.980469 6.203125 -9.980469 Z M 4.105469 -5.960938 C 4.292969 -7.011719 4.882812 -7.753906 6.09375 -7.753906 C 7.25 -7.753906 7.992188 -7.011719 8.058594 -5.960938 Z M 4.105469 -5.960938 "/></g></g></g><g fill="#5ce1e6" fill-opacity="1"><g transform="translate(106.75787, 20.384596)"><g><path d="M 5.371094 -9.632812 L 5.371094 -13.78125 C 3.253906 -13.34375 2.097656 -11.878906 2.097656 -9.632812 L 0.699219 -9.632812 C 0.414062 -9.632812 0.261719 -9.476562 0.261719 -9.195312 L 0.261719 -7.535156 C 0.261719 -7.25 0.414062 -7.097656 0.699219 -7.097656 L 2.097656 -7.097656 L 2.097656 -0.4375 C 2.097656 -0.152344 2.25 0 2.535156 0 L 4.9375 0 C 5.21875 0 5.371094 -0.152344 5.371094 -0.4375 L 5.371094 -7.097656 L 6.792969 -7.097656 C 7.074219 -7.097656 7.230469 -7.25 7.230469 -7.535156 L 7.230469 -9.195312 C 7.230469 -9.476562 7.074219 -9.632812 6.792969 -9.632812 Z M 5.371094 -9.632812 "/></g></g></g></svg>